<?xml version="1.0" encoding="UTF-8"?>
<svg id="Layer_1" xmlns="http://www.w3.org/2000/svg" version="1.1" xmlns:xlink="http://www.w3.org/1999/xlink" viewBox="0 0 269 108">
  <!-- Generator: Adobe Illustrator 29.2.1, SVG Export Plug-In . SVG Version: 2.1.0 Build 116)  -->
  <defs>
    <style>
      .st0 {
        fill: #f6b026;
      }

      .st0, .st1, .st2, .st3, .st4 {
        stroke: #231f20;
        stroke-miterlimit: 10;
      }

      .st1 {
        fill: #3953a4;
      }

      .st2 {
        fill: #fff;
      }

      .st5, .st3 {
        fill: #231f20;
      }

      .st4 {
        fill: #ec2226;
      }
    </style>
  </defs>
  <rect class="st3" x="-18.3" y="0" width="30.3" height="538.2"/>
  <rect class="st4" x="1" y="-11.9" width="22" height="363.4"/>
  <rect class="st1" x="33.1" y="24.5" width="189.1" height="20.9" transform="translate(24.1 -47.5) rotate(23.2)"/>
  <rect class="st2" x="36.9" y="183" width="65.2" height="20.9" transform="translate(81.9 -11.7) rotate(23.2)"/>
  <rect class="st4" x="30.9" y="46.4" width="189.1" height="9.9" transform="translate(30.4 -45.3) rotate(23.2)"/>
  <rect class="st1" x="30.4" y="58.1" width="189.1" height="11.4" transform="translate(35.3 -44.1) rotate(23.2)"/>
  <rect class="st4" x="30" y="71.1" width="189.1" height="10.5" transform="translate(40.2 -42.9) rotate(23.2)"/>
  <rect class="st1" x="30" y="82.5" width="189.1" height="10.5" transform="translate(44.7 -42) rotate(23.2)"/>
  <rect class="st4" x="30.5" y="94" width="189.1" height="7.9" transform="translate(48.8 -41.4) rotate(23.2)"/>
  <rect class="st1" x="30.5" y="103.6" width="189.1" height="11.4" transform="translate(53.3 -40.5) rotate(23.2)"/>
  <rect class="st4" x="30.1" y="116.7" width="189.1" height="9.6" transform="translate(58 -39.3) rotate(23.2)"/>
  <rect class="st1" x="30.2" y="128.1" width="189.1" height="9.3" transform="translate(62.5 -38.5) rotate(23.2)"/>
  <rect class="st4" x="30.2" y="139.5" width="189.1" height="9.6" transform="translate(67 -37.5) rotate(23.2)"/>
  <rect class="st1" x="30.2" y="150.9" width="189.1" height="9.4" transform="translate(71.5 -36.6) rotate(23.2)"/>
  <rect class="st2" x="30.2" y="162.2" width="189.1" height="9.5" transform="translate(76 -35.7) rotate(23.2)"/>
  <rect class="st2" x="30.1" y="173.6" width="189.1" height="9.8" transform="translate(80.5 -34.7) rotate(23.2)"/>
  <rect class="st2" x="30.1" y="185" width="189.1" height="9.8" transform="translate(85 -33.8) rotate(23.2)"/>
  <rect class="st2" x="30.5" y="196.5" width="189.1" height="7.9" transform="translate(89.2 -33.1) rotate(23.2)"/>
  <rect class="st2" x="93.3" y="226.9" width="8.2" height="10.4"/>
  <rect class="st2" x="93.3" y="236.8" width="11.3" height="10.4"/>
  <rect class="st2" x="93.3" y="246.7" width="16.7" height="10.4"/>
  <rect class="st2" x="93.3" y="256.5" width="23" height="10.4"/>
  <rect class="st2" x="93.3" y="267.8" width="31.6" height="9"/>
  <rect class="st2" x="93.3" y="276.5" width="36.7" height="10.1"/>
  <rect class="st2" x="93.3" y="286.6" width="39.2" height="11.2"/>
  <rect class="st2" x="93.3" y="298" width="42.3" height="8.4"/>
  <rect class="st2" x="93.3" y="306.3" width="46.5" height="10.8"/>
  <rect class="st2" x="93.3" y="317.8" width="53.3" height="9.3"/>
  <rect class="st2" x="93.3" y="327.6" width="57.9" height="8.3"/>
  <rect class="st2" x="93.3" y="335.9" width="68.3" height="21.7"/>
  <rect class="st4" x="225.8" y="126.9" width="189.1" height="10.5" transform="translate(78.1 -115.7) rotate(23.2)"/>
  <rect class="st2" x="225.8" y="138.3" width="189.1" height="10.5" transform="translate(82.6 -114.7) rotate(23.2)"/>
  <rect class="st2" x="225.8" y="149.7" width="189.1" height="10.5" transform="translate(87.1 -113.8) rotate(23.2)"/>
  <rect class="st2" x="225.8" y="161.1" width="189.1" height="10.5" transform="translate(91.6 -112.9) rotate(23.2)"/>
  <rect class="st2" x="225.8" y="172.5" width="189.1" height="10.5" transform="translate(96.1 -112) rotate(23.2)"/>
  <rect class="st4" x="225.8" y="183.9" width="189.1" height="10.5" transform="translate(100.6 -111) rotate(23.2)"/>
  <rect class="st2" x="225.8" y="195.3" width="189.1" height="10.5" transform="translate(105.1 -110.1) rotate(23.2)"/>
  <rect class="st2" x="225.8" y="206.7" width="189.1" height="10.5" transform="translate(109.6 -109.2) rotate(23.2)"/>
  <rect class="st2" x="225.9" y="218.1" width="189.1" height="9.8" transform="translate(113.9 -108.3) rotate(23.2)"/>
  <rect class="st2" x="225.8" y="229.5" width="189.1" height="10.5" transform="translate(118.6 -107.3) rotate(23.2)"/>
  <rect class="st2" x="225.8" y="240.8" width="189.1" height="10.5" transform="translate(123.1 -106.4) rotate(23.2)"/>
  <rect class="st2" x="225.6" y="252.2" width="189.1" height="11.3" transform="translate(127.7 -105.4) rotate(23.2)"/>
  <rect class="st2" x="225.8" y="263.6" width="189.1" height="10.5" transform="translate(132 -104.6) rotate(23.2)"/>
  <rect class="st2" x="226.3" y="275.1" width="189.1" height="7.9" transform="translate(136.1 -103.9) rotate(23.2)"/>
  <rect class="st1" x="287.6" y="-13" width="28.6" height="114"/>
  <rect class="st0" x="43.9" y="216" width="12.7" height="135.2"/>
  <rect class="st0" x="124.6" y="208.2" width="11.1" height="158.5" transform="translate(-126.3 103.6) rotate(-30)"/>
  <rect class="st2" x="56.8" y="216" width="12.7" height="135.2"/>
  <rect class="st2" x="69.7" y="216" width="12.7" height="135.2"/>
  <rect class="st2" x="82.6" y="216" width="12.7" height="135.2"/>
  <rect class="st1" x="221.7" y="257.4" width="26.4" height="161.4"/>
  <rect class="st1" x="191.1" y="257.4" width="18.4" height="26.8"/>
  <rect class="st2" x="155.4" y="284.5" width="54.3" height="20.2"/>
  <rect class="st2" x="190.8" y="305.1" width="18.7" height="15.9"/>
  <rect class="st2" x="190.9" y="322.3" width="18.3" height="16.2"/>
  <rect class="st4" x="210" y="276" width="11.2" height="23.6"/>
  <rect class="st2" x="210" y="299.6" width="10.9" height="28.3"/>
  <rect class="st2" x="209.2" y="328.7" width="11.7" height="27.3"/>
  <rect class="st2" x="200" y="384.7" width="11.8" height="47.3"/>
  <rect class="st2" x="212.2" y="419" width="59.2" height="27.9"/>
  <rect class="st2" x="259.5" y="384.7" width="10.9" height="33.7"/>
  <rect class="st2" x="234.9" y="263.2" width="30" height="82.8"/>
  <rect class="st0" x="282" y="296.8" width="70.2" height="98.7"/>
  <g>
    <rect class="st2" x="368.3" y="325.5" width="18.9" height="12.3"/>
    <rect class="st2" x="368.3" y="338" width="18.9" height="12.3"/>
    <rect class="st2" x="368.3" y="350.5" width="18.9" height="12.3"/>
    <rect class="st2" x="368.3" y="363" width="18.9" height="12.3"/>
    <rect class="st2" x="368.3" y="375.3" width="18.9" height="12.3"/>
  </g>
  <rect class="st4" x="300.4" y="387.4" width="104.4" height="26.4"/>
  <rect class="st1" x="316.4" y="398.8" width="88.5" height="57.7"/>
  <rect class="st2" x="346.5" y="455.4" width="84.9" height="34.8"/>
  <rect class="st2" x="329.1" y="517" width="74.6" height="24.5"/>
  <rect class="st2" x="232.7" y="468.6" width="8.5" height="102.1"/>
  <rect class="st2" x="208.9" y="490.6" width="23.7" height="41.8"/>
  <rect class="st0" x="241.3" y="491" width="21.4" height="42.7"/>
  <rect class="st2" x="242.4" y="446.5" width="35.3" height="43.9"/>
  <rect class="st3" x="196.6" y="455.4" width="35.3" height="35.3"/>
  <rect class="st2" x="196.6" y="531" width="35.3" height="35.3"/>
  <rect class="st2" x="242.4" y="533.9" width="35.3" height="35.3"/>
  <rect class="st2" x="291.8" y="474.7" width="36.4" height="80.5"/>
  <rect class="st1" x="21.7" y="486.5" width="60.7" height="114.4"/>
  <rect class="st0" x="1.3" y="352" width="182.2" height="43.5"/>
  <rect class="st3" x="72.3" y="416.5" width="100.4" height="50"/>
  <rect class="st2" x="130.4" y="381.2" width="42.3" height="46.4"/>
  <rect class="st2" x="189.6" y="366" width="6.1" height="136.5"/>
  <rect class="st2" x=".4" y="444.9" width="38" height="7.3"/>
  <rect class="st2" x="36.1" y="459.2" width="38" height="7.3" transform="translate(171.4 11.5) rotate(21.2)"/>
  <rect class="st2" x="68.3" y="480.6" width="38" height="7.3" transform="translate(236.8 15.5) rotate(27.9)"/>
  <rect class="st4" x="98.2" y="506.1" width="38" height="7.3" transform="translate(252.2 4.4) rotate(27.9)"/>
  <rect class="st2" x="123.2" y="535.3" width="38" height="7.3" transform="translate(462.5 82.8) rotate(49.9)"/>
  <rect class="st0" x="151.6" y="560.8" width="38" height="7.3" transform="translate(492.1 70.1) rotate(49.9)"/>
  <rect class="st4" x="182.8" y="584.1" width="38" height="7.3" transform="translate(226.7 -33.2) rotate(21.2)"/>
  <rect class="st1" x="147" y="592.3" width="51.2" height="9.8" transform="translate(-404.5 366.1) rotate(-52.1)"/>
  <rect class="st2" x="81.1" y="605.8" width="38" height="7.3" transform="translate(195 -.8) rotate(18.2)"/>
  <rect class="st2" x="117.7" y="610.2" width="38" height="7.3" transform="translate(198.2 -12) rotate(18.2)"/>
  <rect class="st2" x="217.9" y="601.1" width="38" height="7.3" transform="translate(92.4 -28.5) rotate(8.5)"/>
  <rect class="st0" x="256.4" y="606.9" width="38" height="7.3" transform="translate(-130.7 77.9) rotate(-13)"/>
  <rect class="st2" x="295" y="610.7" width="38" height="7.3"/>
  <rect class="st2" x="333.6" y="610.3" width="38" height="7.3"/>
  <rect class="st2" x="363.8" y="591.2" width="38" height="7.3" transform="translate(-323.7 628.9) rotate(-60)"/>
  <rect class="st2" x="377.2" y="555.7" width="38" height="7.3" transform="translate(-286.3 622.8) rotate(-60)"/>
  <rect class="st2" x="83" y="557" width="51.9" height="33.2"/>
  <rect class="st3" x="293.6" y="588.5" width="14.3" height="14.3"/>
  <rect class="st2" x="327.6" y="554.6" width="21" height="19.7"/>
  <rect class="st2" x="23" y="-11.9" width="21.8" height="363.3"/>
  <rect class="st2" x="228.4" y="103.1" width="189.1" height="23.5" transform="translate(71.5 -118.1) rotate(23.2)"/>
  <rect class="st0" x="210.4" y="-13" width="30.8" height="270.5"/>
  <rect class="st3" x="400.5" y="60.8" width="30.8" height="263.9"/>
  <path class="st5" d="M-10.3,369.2c0-18.6,7.7-33.5,20.8-51.6l36.2-50.1h37.7l-30.5,41.9c-5.5,7.4-15.6,15.1-15.6,15.1,5.5-2.7,11.2-4.2,18.6-4.2,26.5,0,47.4,18.4,47.4,48.1s-25.6,52.3-57.1,52.3-57.6-20.8-57.6-51.6ZM70.1,368.4c0-11.9-8.4-22.8-23.1-22.8s-23.1,10.9-23.1,22.8,8.4,22.8,23.1,22.8,23.1-10.9,23.1-22.8Z"/>
  <path class="st2" d="M56.5,364.5l25.3-26.8c7.2-7.6,10.7-10.9,10.7-16.4s-3.2-7.2-8-7.2-9.1,4.6-11,10.2l-16-4.3c3-13.6,13.8-21.3,26.9-21.3s25.9,10.5,25.9,21.6-5.6,15.7-13.3,24l-1.9,2c-2.4,2.5-7.6,5.8-7.6,5.8,0,0,6.5-.6,8.8-.6h14.7v14.6h-54.3v-1.5Z"/>
  <rect class="st2" x="198.6" y="193.4" width="23" height="83"/>
  <rect class="st2" x="93.2" y="9.9" width="4.2" height="83" transform="translate(180.2 -15.9) rotate(113.2)"/>
  <rect class="st2" x="159.4" y="62.1" width="4.2" height="83" transform="translate(320.5 -4) rotate(113.2)"/>
  <rect class="st2" x="84.4" y="53.1" width="4.2" height="83" transform="translate(207.5 52.5) rotate(113.2)"/>
  <rect class="st2" x="154.9" y="127.4" width="4.2" height="83" transform="translate(374.2 91.3) rotate(113.2)"/>
</svg>