<?xml version="1.0" encoding="UTF-8"?>
<svg id="Layer_1" xmlns="http://www.w3.org/2000/svg" version="1.1" xmlns:xlink="http://www.w3.org/1999/xlink" viewBox="0 0 512 512">
  <!-- Generator: Adobe Illustrator 29.2.1, SVG Export Plug-In . SVG Version: 2.1.0 Build 116)  -->
  <defs>
    <style>
      .st0 {
        fill: #f6b026;
      }

      .st0, .st1 {
        stroke: #231f20;
        stroke-miterlimit: 10;
      }

      .st1 {
        fill: #231f20;
      }
    </style>
  </defs>
  <path class="st0" d="M28,328.7c0-53.9,22.3-97.1,60.4-149.6L193.5,33.7h109.3l-88.5,121.6c-15.8,21.6-45.3,43.9-45.3,43.9,15.8-7.9,32.4-12.2,53.9-12.2,77,0,137.4,53.2,137.4,139.6s-74.1,151.8-165.4,151.8S28,417.9,28,328.7ZM261.1,326.5c0-34.5-24.5-66.2-66.9-66.2s-66.9,31.7-66.9,66.2,24.5,66.2,66.9,66.2,66.9-31.6,66.9-66.2Z"/>
  <path class="st1" d="M261.1,341.6l103.6-109.9c29.7-31.2,43.7-44.8,43.7-67.2s-13-29.7-32.8-29.7-37.5,18.7-45.3,41.7l-64.7-21.5c12.5-55.7,55.8-83.7,109.5-83.7s106.2,43.2,106.2,88.5-22.9,64.6-54.7,98.4l-7.8,8.3c-9.9,10.4-31.2,24-31.2,24,0,0,26.6-2.6,35.9-2.6h60.4v59.9h-222.9v-6.2Z"/>
</svg>