<?xml version="1.0" encoding="UTF-8"?>
<svg id="Layer_1" xmlns="http://www.w3.org/2000/svg" version="1.1" xmlns:xlink="http://www.w3.org/1999/xlink" viewBox="0 0 484 232">
  <!-- Generator: Adobe Illustrator 29.2.1, SVG Export Plug-In . SVG Version: 2.1.0 Build 116)  -->
  <defs>
    <style>
      .st0 {
        fill: #f6b026;
      }

      .st0, .st1, .st2, .st3, .st4 {
        stroke: #231f20;
        stroke-miterlimit: 10;
      }

      .st1 {
        fill: #3953a4;
      }

      .st2 {
        fill: #fff;
      }

      .st5, .st3 {
        fill: #231f20;
      }

      .st4 {
        fill: #ec2226;
      }
    </style>
  </defs>
  <rect class="st3" x="-3.6" y="-265.9" width="32.9" height="584.3"/>
  <rect class="st4" x="17.4" y="-278.7" width="23.9" height="394.5"/>
  <rect class="st1" x="52.2" y="-239.1" width="205.3" height="22.6" transform="translate(-77.3 -79.6) rotate(23.2)"/>
  <rect class="st2" x="56.4" y="-67.1" width="70.8" height="22.6" transform="translate(-14.6 -40.7) rotate(23.2)"/>
  <rect class="st4" x="49.8" y="-215.4" width="205.3" height="10.7" transform="translate(-70.5 -77.2) rotate(23.2)"/>
  <rect class="st1" x="49.4" y="-202.7" width="205.3" height="12.4" transform="translate(-65.2 -75.9) rotate(23.2)"/>
  <rect class="st4" x="48.8" y="-188.6" width="205.3" height="11.4" transform="translate(-59.9 -74.6) rotate(23.2)"/>
  <rect class="st1" x="48.8" y="-176.2" width="205.3" height="11.4" transform="translate(-55 -73.6) rotate(23.2)"/>
  <rect class="st4" x="49.4" y="-163.8" width="205.3" height="8.5" transform="translate(-50.6 -72.9) rotate(23.2)"/>
  <rect class="st1" x="49.4" y="-153.3" width="205.3" height="12.3" transform="translate(-45.7 -71.9) rotate(23.2)"/>
  <rect class="st4" x="49" y="-139.1" width="205.3" height="10.5" transform="translate(-40.5 -70.7) rotate(23.2)"/>
  <rect class="st1" x="49.1" y="-126.7" width="205.3" height="10.1" transform="translate(-35.7 -69.7) rotate(23.2)"/>
  <rect class="st4" x="49" y="-114.4" width="205.3" height="10.4" transform="translate(-30.8 -68.7) rotate(23.2)"/>
  <rect class="st1" x="49.1" y="-102" width="205.3" height="10.2" transform="translate(-25.9 -67.7) rotate(23.2)"/>
  <rect class="st2" x="49.1" y="-89.6" width="205.3" height="10.3" transform="translate(-21 -66.7) rotate(23.2)"/>
  <rect class="st2" x="49" y="-77.3" width="205.3" height="10.7" transform="translate(-16.1 -65.7) rotate(23.2)"/>
  <rect class="st2" x="49" y="-64.9" width="205.3" height="10.7" transform="translate(-11.2 -64.6) rotate(23.2)"/>
  <rect class="st2" x="49.4" y="-52.5" width="205.3" height="8.5" transform="translate(-6.7 -63.9) rotate(23.2)"/>
  <rect class="st2" x="117.6" y="-19.4" width="8.9" height="11.3"/>
  <rect class="st2" x="117.6" y="-8.7" width="12.3" height="11.3"/>
  <rect class="st2" x="117.6" y="2" width="18.1" height="11.3"/>
  <rect class="st2" x="117.6" y="12.7" width="25" height="11.3"/>
  <rect class="st2" x="117.6" y="25" width="34.3" height="9.7"/>
  <rect class="st2" x="117.6" y="34.4" width="39.9" height="10.9"/>
  <rect class="st2" x="117.6" y="45.4" width="42.6" height="12.2"/>
  <rect class="st2" x="117.6" y="57.7" width="45.9" height="9.1"/>
  <rect class="st2" x="117.6" y="66.8" width="50.5" height="11.8"/>
  <rect class="st2" x="117.6" y="79.2" width="57.9" height="10.1"/>
  <rect class="st2" x="117.6" y="89.9" width="62.9" height="9"/>
  <rect class="st2" x="117.6" y="98.9" width="74.1" height="23.6"/>
  <rect class="st4" x="261.4" y="-128" width="205.3" height="11.4" transform="translate(-18.7 -153.5) rotate(23.2)"/>
  <rect class="st2" x="261.4" y="-115.6" width="205.3" height="11.4" transform="translate(-13.8 -152.5) rotate(23.2)"/>
  <rect class="st2" x="261.4" y="-103.2" width="205.3" height="11.4" transform="translate(-9 -151.5) rotate(23.2)"/>
  <rect class="st2" x="261.4" y="-90.9" width="205.3" height="11.4" transform="translate(-4.1 -150.5) rotate(23.2)"/>
  <rect class="st2" x="261.4" y="-78.5" width="205.3" height="11.4" transform="translate(.8 -149.5) rotate(23.2)"/>
  <rect class="st4" x="261.4" y="-66.1" width="205.3" height="11.4" transform="translate(5.7 -148.5) rotate(23.2)"/>
  <rect class="st2" x="261.4" y="-53.8" width="205.3" height="11.4" transform="translate(10.6 -147.5) rotate(23.2)"/>
  <rect class="st2" x="261.4" y="-41.4" width="205.3" height="11.4" transform="translate(15.4 -146.5) rotate(23.2)"/>
  <rect class="st2" x="261.6" y="-29" width="205.3" height="10.6" transform="translate(20.2 -145.6) rotate(23.2)"/>
  <rect class="st2" x="261.4" y="-16.7" width="205.3" height="11.4" transform="translate(25.2 -144.5) rotate(23.2)"/>
  <rect class="st2" x="261.4" y="-4.3" width="205.3" height="11.4" transform="translate(30.1 -143.5) rotate(23.2)"/>
  <rect class="st2" x="261.2" y="8" width="205.3" height="12.3" transform="translate(35.1 -142.4) rotate(23.2)"/>
  <rect class="st2" x="261.4" y="20.4" width="205.3" height="11.4" transform="translate(39.8 -141.5) rotate(23.2)"/>
  <rect class="st2" x="262" y="32.9" width="205.3" height="8.5" transform="translate(44.2 -140.8) rotate(23.2)"/>
  <rect class="st1" x="328.5" y="-279.9" width="31" height="123.8"/>
  <rect class="st0" x="64" y="-31.3" width="13.8" height="146.8"/>
  <rect class="st0" x="151.5" y="-39.8" width="12.1" height="172.1" transform="translate(-2 85) rotate(-30)"/>
  <rect class="st2" x="78" y="-31.3" width="13.8" height="146.8"/>
  <rect class="st2" x="92" y="-31.3" width="13.8" height="146.8"/>
  <rect class="st2" x="106" y="-31.3" width="13.8" height="146.8"/>
  <rect class="st1" x="257" y="13.6" width="28.7" height="175.2"/>
  <rect class="st1" x="223.8" y="13.6" width="20" height="29.1"/>
  <rect class="st2" x="185" y="43.1" width="59" height="21.9"/>
  <rect class="st2" x="223.4" y="65.4" width="20.3" height="17.3"/>
  <rect class="st2" x="223.5" y="84.1" width="19.9" height="17.6"/>
  <rect class="st4" x="244.3" y="33.8" width="12.2" height="25.7"/>
  <rect class="st2" x="244.3" y="59.5" width="11.8" height="30.7"/>
  <rect class="st2" x="243.4" y="91.1" width="12.7" height="29.6"/>
  <rect class="st2" x="233.4" y="151.8" width="12.8" height="51.3"/>
  <rect class="st2" x="246.7" y="189.1" width="64.3" height="30.3"/>
  <rect class="st2" x="298" y="151.8" width="11.8" height="36.5"/>
  <rect class="st2" x="271.3" y="20" width="32.6" height="89.9"/>
  <rect class="st0" x="322.4" y="56.5" width="76.2" height="107.1"/>
  <g>
    <rect class="st2" x="416.2" y="87.6" width="20.5" height="13.3"/>
    <rect class="st2" x="416.2" y="101.1" width="20.5" height="13.3"/>
    <rect class="st2" x="416.2" y="114.7" width="20.5" height="13.3"/>
    <rect class="st2" x="416.2" y="128.3" width="20.5" height="13.3"/>
    <rect class="st2" x="416.2" y="141.6" width="20.5" height="13.3"/>
  </g>
  <rect class="st4" x="342.5" y="154.8" width="113.4" height="28.7"/>
  <rect class="st1" x="359.7" y="167.2" width="96.1" height="62.6"/>
  <rect class="st2" x="392.4" y="228.6" width="92.2" height="37.7"/>
  <rect class="st2" x="373.6" y="295.5" width="81" height="26.6"/>
  <rect class="st2" x="268.9" y="242.9" width="9.3" height="110.9"/>
  <rect class="st2" x="243.1" y="266.9" width="25.7" height="45.4"/>
  <rect class="st0" x="278.3" y="267.2" width="23.2" height="46.4"/>
  <rect class="st2" x="279.5" y="219" width="38.3" height="47.7"/>
  <rect class="st3" x="229.8" y="228.6" width="38.3" height="38.3"/>
  <rect class="st2" x="229.8" y="310.6" width="38.3" height="38.3"/>
  <rect class="st2" x="279.5" y="313.8" width="38.3" height="38.3"/>
  <rect class="st2" x="333.1" y="249.6" width="39.5" height="87.4"/>
  <rect class="st1" x="39.9" y="262.4" width="65.9" height="124.2"/>
  <rect class="st0" x="17.7" y="116.4" width="197.8" height="47.2"/>
  <rect class="st3" x="94.8" y="186.4" width="109" height="54.3"/>
  <rect class="st2" x="157.8" y="148" width="46" height="50.4"/>
  <rect class="st2" x="222.2" y="131.5" width="6.6" height="148.2"/>
  <rect class="st2" x="16.7" y="217.2" width="41.3" height="7.9"/>
  <rect class="st2" x="55.5" y="232.7" width="41.3" height="7.9" transform="translate(90.9 -11.5) rotate(21.2)"/>
  <rect class="st2" x="90.4" y="256" width="41.3" height="7.9" transform="translate(134.5 -21.7) rotate(27.9)"/>
  <rect class="st4" x="122.9" y="283.6" width="41.3" height="7.9" transform="translate(151.3 -33.7) rotate(27.9)"/>
  <rect class="st2" x="150.1" y="315.3" width="41.3" height="7.9" transform="translate(304.7 -17.1) rotate(49.9)"/>
  <rect class="st0" x="180.9" y="343" width="41.3" height="7.9" transform="translate(336.8 -30.8) rotate(49.9)"/>
  <rect class="st4" x="214.7" y="368.3" width="41.3" height="7.9" transform="translate(150.9 -60) rotate(21.2)"/>
  <rect class="st1" x="175.9" y="377.3" width="55.5" height="10.6" transform="translate(-223.3 307.9) rotate(-52.1)"/>
  <rect class="st2" x="104.4" y="391.9" width="41.3" height="7.9" transform="translate(129.7 -19.3) rotate(18.2)"/>
  <rect class="st2" x="144.1" y="396.7" width="41.3" height="7.9" transform="translate(133.1 -31.4) rotate(18.2)"/>
  <rect class="st2" x="252.9" y="386.8" width="41.3" height="7.9" transform="translate(61 -36.3) rotate(8.5)"/>
  <rect class="st0" x="294.6" y="393.1" width="41.3" height="7.9" transform="translate(-81.4 81.4) rotate(-13)"/>
  <rect class="st2" x="336.5" y="397.2" width="41.3" height="7.9"/>
  <rect class="st2" x="378.4" y="396.8" width="41.3" height="7.9"/>
  <rect class="st2" x="411.2" y="376" width="41.3" height="7.9" transform="translate(-113.1 564) rotate(-60)"/>
  <rect class="st2" x="425.8" y="337.5" width="41.3" height="7.9" transform="translate(-72.4 557.3) rotate(-60)"/>
  <rect class="st2" x="106.4" y="338.9" width="56.3" height="36"/>
  <rect class="st3" x="335" y="373" width="15.6" height="15.6"/>
  <rect class="st2" x="371.9" y="336.3" width="22.8" height="21.3"/>
  <rect class="st2" x="41.3" y="-278.7" width="23.7" height="394.4"/>
  <rect class="st2" x="264.2" y="-153.9" width="205.3" height="25.5" transform="translate(-25.9 -156.2) rotate(23.2)"/>
  <rect class="st0" x="244.7" y="-279.9" width="33.5" height="293.6"/>
  <rect class="st3" x="451.1" y="-199.8" width="33.5" height="286.5"/>
  <path class="st5" d="M5.1,135c0-20.2,8.3-36.4,22.6-56l39.3-54.4h40.9l-33.1,45.5c-5.9,8.1-17,16.4-17,16.4,5.9-3,12.1-4.6,20.2-4.6,28.8,0,51.4,19.9,51.4,52.3s-27.7,56.8-61.9,56.8S5.1,168.4,5.1,135ZM92.4,134.2c0-12.9-9.2-24.8-25-24.8s-25,11.9-25,24.8,9.2,24.8,25,24.8,25-11.9,25-24.8Z"/>
  <path class="st2" d="M77.7,129.9l27.4-29.1c7.9-8.3,11.6-11.8,11.6-17.8s-3.4-7.9-8.7-7.9-9.9,5-12,11l-17.4-4.7c3.3-14.7,15-23.1,29.2-23.1s28.1,11.4,28.1,23.4-6.1,17.1-14.5,26l-2.1,2.2c-2.6,2.8-8.3,6.3-8.3,6.3,0,0,7-.7,9.5-.7h16v15.8h-59v-1.7Z"/>
  <rect class="st2" x="231.9" y="-55.8" width="24.9" height="90.2"/>
  <rect class="st2" x="117.5" y="-255.1" width="4.6" height="90.2" transform="translate(-25.9 -402.9) rotate(113.2)"/>
  <rect class="st2" x="189.4" y="-198.4" width="4.6" height="90.2" transform="translate(126.4 -389.9) rotate(113.2)"/>
  <rect class="st2" x="107.9" y="-208.1" width="4.6" height="90.2" transform="translate(3.8 -328.6) rotate(113.2)"/>
  <rect class="st2" x="184.5" y="-127.4" width="4.6" height="90.2" transform="translate(184.7 -286.4) rotate(113.2)"/>
</svg>